<?xml version="1.0" encoding="utf-8"?>
<!-- Generator: Adobe Illustrator 25.2.1, SVG Export Plug-In . SVG Version: 6.00 Build 0)  -->
<svg version="1.1" id="Capa_1" xmlns="http://www.w3.org/2000/svg" xmlns:xlink="http://www.w3.org/1999/xlink" x="0px" y="0px"
	 width="59.9px" height="36.9px" viewBox="0 0 59.9 36.9" style="enable-background:new 0 0 59.9 36.9;" xml:space="preserve">
<style type="text/css">
	.st0{fill-rule:evenodd;clip-rule:evenodd;fill:#27424E;}
</style>
<g>
	<g>
		<g>
			<g>
				<path class="st0" d="M24.1,16.4c1.7-0.8,2.9-1.9,3.7-2.9c0.8-1.2,1.2-2.7,1.2-4.6c0-1.7-0.2-3.1-0.8-4.4s-1.5-2.1-2.5-2.7
					c-1-0.6-2.3-1.2-3.7-1.5C20.5,0.2,18.9,0,17.2,0H0v36.3h17.8c1.7,0,3.3-0.2,4.8-0.6c1.7-0.4,2.9-1,4.1-1.9
					c1.2-0.8,2.1-1.9,2.9-3.3c0.6-1.2,1-2.9,1-4.8c0-2.3-0.6-4.1-1.7-5.8C28,18,26.3,17,24.1,16.4z M8.1,6h7.7c0.6,0,1.5,0,2.1,0.2
					c0.6,0.2,1.2,0.4,1.9,0.6c0.6,0.2,1,0.6,1.2,1.2c0.2,0.6,0.4,1.2,0.4,2.1c0,1.5-0.4,2.7-1.5,3.3c-0.8,0.6-2.1,1-3.5,1H8.1V6z
					 M22.2,27.6c-0.4,0.6-0.8,1-1.2,1.5c-0.6,0.4-1.2,0.6-1.9,0.8s-1.5,0.2-2.3,0.2H8.1v-10H17c1.9,0,3.1,0.4,4.1,1.2
					c1,0.8,1.7,2.1,1.7,3.9C22.6,26.1,22.6,27,22.2,27.6z M59.3,18.9c-0.4-1.9-1.2-3.5-2.3-5c-1-1.5-2.5-2.7-4.1-3.5
					c-1.7-0.8-3.7-1.2-6-1.2c-2.1,0-3.9,0.4-5.6,1c-1.7,0.6-3.1,1.7-4.4,2.9c-1.2,1.2-2.1,2.7-2.7,4.4c-0.6,1.7-1,3.5-1,5.6
					s0.2,3.9,1,5.6c0.6,1.7,1.5,3.1,2.7,4.4c1.2,1.2,2.7,2.1,4.4,2.9c1.7,0.6,3.5,1,5.6,1c2.9,0,5.6-0.6,7.7-2.1s3.7-3.5,4.8-6.8
					h-6.4c-0.2,0.8-0.8,1.7-1.9,2.3c-1,0.8-2.3,1-3.7,1c-2.1,0-3.7-0.6-4.8-1.7c-1-1-1.9-3.1-1.9-5.2h19.3
					C59.9,22.6,59.7,20.7,59.3,18.9z M40.4,20.1c0-0.4,0.2-1,0.4-1.7c0.2-0.6,0.4-1.2,1-1.9c0.4-0.6,1-1,1.9-1.5
					c0.8-0.4,1.7-0.6,2.9-0.6c1.9,0,3.3,0.4,4.1,1.5c0.8,1,1.5,2.3,1.7,4.1L40.4,20.1z M55,1.7H38.8v3.7H55V1.7z"/>
			</g>
		</g>
	</g>
</g>
</svg>
