<?xml version="1.0" encoding="utf-8"?>
<!-- Generator: Adobe Illustrator 25.2.1, SVG Export Plug-In . SVG Version: 6.00 Build 0)  -->
<svg version="1.1" id="Capa_1" xmlns="http://www.w3.org/2000/svg" xmlns:xlink="http://www.w3.org/1999/xlink" x="0px" y="0px"
	 width="1425.4px" height="708.7px" viewBox="0 0 1425.4 708.7" style="enable-background:new 0 0 1425.4 708.7;"
	 xml:space="preserve">
<style type="text/css">
	.st0{fill:#F0D565;}
	.st1{fill:#75B1A3;}
</style>
<g>
	<g>
		<g>
			<g>
				<path class="st0" d="M950.5,330.1c-0.9,0.8-1.8,1.6-2.6,2.4c0.9,3.3,3.3,6.9,7.6,11.2c2.4-9.5,4.3-17.6,5.5-23.1
					C957.5,323.5,953.2,327.5,950.5,330.1z"/>
				<path class="st0" d="M1043.6,542.4c-37.3,27.7-69,32.4-97.7,33.5c-1,0-2,0-2.9,0l-0.2,0c4.2,5.4,11.9,7.8,23.4,7.4
					c27.3-1,55.9-5.3,90.2-30.8c23.8-17.7,31.6-36.2,31.3-44.1c-0.1-3.9-2.8-8.4-8.3-13.8C1076.6,508.1,1065.3,526.3,1043.6,542.4z"
					/>
				<path class="st0" d="M125.9,470.9c4.1,2.6,8.5,5.9,13.2,9.5c63.3-59,113.5-110.3,145.8-149.8c4.2-5.7,8.5-11.2,13-16.6
					c17.7-23.6,27.4-41.9,27.4-53.4c0-5.7-2.8-10.2-8.2-13.8C309.6,284.5,245.3,359.8,125.9,470.9z"/>
				<path class="st0" d="M124.8,333.5c-21.6-5.6-33.9-6.8-40.4-6.8c-3.5,0-14.2,0-24.4,17.1c-1.1,1.9-2.6,3.3-4.3,4.4
					c3.9,4.4,9.7,8.3,13.6,9.6c9.4-15.8,21.5-23.7,35.9-23.7c10.1,0,24.4,2.2,43.8,7.2c1.3,0.3,2.7,0.7,4.1,1.1
					c0.4-0.5,0.8-1,1.2-1.4C144.7,338.6,133.5,335.8,124.8,333.5z"/>
				<path class="st0" d="M283.2,701.3c-6.1,0-12.1-0.7-18-1.8c12.6,5.8,25.5,9.2,38.8,9.2c10,0,28.7-12.9,55.2-40.2
					c26.6-26.5,42.8-47.4,42.8-55.3c0-6.7-2.7-11.6-8.2-15.1c-2.2,8-10.9,24.1-45.8,58.9C309.4,696.7,292.5,701.3,283.2,701.3z"/>
				<path class="st0" d="M27.4,561.9c-0.8,1.2-1.8,2.2-2.8,3.2c2.5,5.2,6.6,9.5,12.2,10.6c9.3-15.1,23.7-22.3,41.7-22.3
					c1.6,0,3.2,0.2,4.8,0.3c-8.9-4.9-17.4-7.8-25.7-7.8C43.9,545.9,34,551.2,27.4,561.9z"/>
				<path class="st0" d="M449.9,289.7c-17.4,0-47.4,18.1-72.2,57.6c-25.3,40.4-38.2,77.6-38.2,110.6c0,8,3.6,12.5,7.7,15
					c1.4-34.4,14.8-71.8,40-111.9c22.7-36.3,50.9-57.1,72.9-62.4c0.5-1.9,1.1-3.8,1.5-5.7C458.1,290.7,454.3,289.7,449.9,289.7z"/>
				<path class="st0" d="M539.7,364c-25.5,72.9-30.8,100.3-30.8,110.4c0,1.9,0.1,3.3,0.2,4.3c2.1-1.2,5.9-4,11.4-10.2
					c4.9-20.7,14.1-50.2,27.4-88.1c20.8-59.6,29.5-87.2,41-115.2c-4.5-4.5-8.2-7.1-11.2-8.7c-6.8,17.2-13.1,35.7-22.2,62
					C551,331.4,545.9,346.3,539.7,364z"/>
				<path class="st0" d="M729.6,259c-4.2,15.6-7.9,29.7-11.2,42.4c5.9-7.9,12.1-15.4,18.5-22.7c0.2-0.8,0.4-1.6,0.7-2.4
					c16.5-61.7,30.8-116.3,43.1-164.3c12.2-48.1,17.9-74.7,17.9-80.4c0-4.8-3-8-8.8-9.6c-1.9,10.5-6.4,30.9-16.9,72.5
					C761.4,139,747.7,191.3,729.6,259z"/>
				<path class="st0" d="M655.9,65.2c-0.3-0.1-0.8-0.1-1.6-0.1c-7.2,0-15.4,0.9-24.5,2.7c0.9,3.5,2.6,7,5.1,10.5
					c7.4-1.9,14.7-3.3,21.6-4.3c0.1-1.2,0.2-2.2,0.2-2.9C656.6,67.5,656.1,65.9,655.9,65.2z"/>
				<path class="st0" d="M785.6,334.2c-8.3,0-27.6,7.8-62.7,60c-27.6,41.7-47.7,91.3-59.8,147.4c-3.5,19.1-22.7,28.7-56.9,28.7
					c-4.8,0-9.2-0.2-13.2-0.6c5.5,5.3,16.9,8.1,34,8.1c26.6,0,41.6-5.7,43.8-17.9c12.2-56.7,32.3-107.7,61.8-152.2
					c24.2-36.1,45.1-57.5,62.9-63.9C793.3,338.2,790.2,334.2,785.6,334.2z"/>
				<path class="st0" d="M1040.2,202.9c-1.3,0-2.5,0-3.8,0c-3.1,0-5.9-0.3-8.8-0.6c8.1,5.7,18.9,8.5,32.9,8
					c32.3-1.1,55.2-22.8,54.2-50.7c-0.4-9.8-3.1-18.2-7.7-24.9c0.1,1.2,0.2,2.4,0.3,3.6C1108.6,173.8,1079.8,201.6,1040.2,202.9z"/>
				<path class="st0" d="M1120.6,324.7c0.5,5.2,3.2,10.3,7.7,14.8c4.2-4.2,8.2-7.7,12.1-10.8c1.9-10.3,2.7-16,3-19
					C1139.1,310.9,1131.6,314.5,1120.6,324.7z"/>
				<path class="st0" d="M1277.4,270.9c0.1-1,0.2-1.9,0.2-2.5c0-6.3-2.8-10.6-8.2-13.1c-1.1,6.6-3.3,17.2-7.7,35.7
					C1266.7,284,1272,277.4,1277.4,270.9z"/>
				<path class="st0" d="M1312.5,324.9c-2.7,0.2-14,2.9-35.6,31.9c-18.2,24.4-32.5,50.6-42.8,78c-8.4,21.6-16.8,57.2-25.2,106
					c-3.8,20.3-32.2,29.6-56.9,29.6c-4.1,0-8.7-0.3-13.4-1c8.1,5.4,22.8,8.5,34.2,8.5c19.4,0,41.6-7.2,43.8-18.6
					c8.6-50.3,17.3-86.1,25.8-108.4c10.8-28.7,25.9-56,44.5-81.1c16.5-22.2,30.7-34.2,42.2-36.8c-0.3-0.2-0.6-0.3-0.9-0.5
					C1319.3,327,1314,325.2,1312.5,324.9z"/>
				<path class="st0" d="M1417.8,271.2c0.1,1.7,0.2,3.4,0.2,5.1c0,36.1-26.9,67.7-57.6,67.9c8.4,4.7,15,7.4,20.5,7.4
					c23,0,44.5-25.8,44.5-54.5C1425.4,287.2,1422.7,278.3,1417.8,271.2z"/>
				<path class="st0" d="M917.6,291.9c-1.3-3.8-2.8-7.4-4.4-10.6c0.9,5.3,1.4,11.2,1.8,17.4c0.2,2.8,0.4,5.5,0.4,8.5
					c0,3.6-0.1,7.2-0.2,10.8C910.4,464,814.8,606.1,781.3,639.7c-33.3,33.3-59.7,47.6-88.2,47.7c5.6,4.6,12.6,7.4,20.6,7.4
					c26.6,0,50.9-15.7,79-43.8c26.2-26.3,129.2-169.8,130-321.2c0-0.6,0-1.2,0-1.8C922.7,314,920.9,302,917.6,291.9z"/>
				<path class="st0" d="M399.1,523.3c0-4.3,0.4-9,1.1-14.1c-32.1,39.1-64.5,58.3-98.2,58.3c-3.5,0-7.3-0.2-11.2-0.7
					c8.6,5.3,19.2,8.1,32,8.1c6,0,12-0.8,18-2.3c11.9-3,23.8-8.8,35.6-17.7c7.9-5.9,15.9-13.1,23.8-21.7
					C399.6,530.1,399.1,526.7,399.1,523.3z"/>
				<path class="st0" d="M563.6,496.5c-0.9-1.4-1.8-2.6-2.8-3.6c-2,15-14.9,30.1-41.4,48.6c-26.7,18.1-44.4,26.7-72.5,26.7
					c-0.7,0-1.4-0.2-2.1-0.2c6,4.7,13.8,7.6,22.9,7.6c25.1,0,40.6-7.9,65-24.4c9.7-6.7,17.3-12.9,23.1-18.7
					c8.5-8.5,12.9-16.1,12.9-22.9C568.7,506.5,566.5,501,563.6,496.5z"/>
				<path class="st0" d="M1088.2,259c-1.3,7.7-5.1,22.3-14.1,56c-3.4,12.6-7.3,27.3-11.7,44.5l-3.8,14l-3.4,12.7
					c-0.1,0.5-0.2,1-0.4,1.6c-10.6,41.2-18,71.9-21.1,85.9c-0.1,0.6-0.2,1.2-0.4,1.8c3.3-2.6,7.2-6.3,9.7-8.7
					c1.6-1.6,3.3-3.1,4.9-4.6c0.1-0.1,0.3-0.2,0.5-0.3c3.8-15.9,8.7-35.4,14.1-56.7c0.1-0.5,0.2-0.9,0.3-1.3
					c2.3-8.6,4.8-17.6,7.3-27.1c7.3-27.9,13.1-49.5,17.3-65.6c4.4-16.9,7.2-27.7,8.2-33.3c0.3-1.5,0.4-2.7,0.4-3.5
					C1095.9,267.2,1093.3,262.1,1088.2,259z"/>
			</g>
		</g>
		<g>
			<g>
				<path class="st1" d="M1029.7,491.9c-4.5,0.1-11-1-10.4-12.4c0.3-2.5,0.8-5.4,1.4-8.6c3.6-16,11.5-48.5,21.2-86.5
					c0.1-0.4,0.2-0.9,0.3-1.3c2.3-8.6,4.8-17.6,7.4-27.1c17.1-65.3,26-96.6,25.8-102.4c-0.5-13.7-9.3-19.8-27.3-19.2
					c-27.3,0.9-56.6,6.7-90.9,32.2c-23.9,17.7-30.9,34.9-30.6,42.7c0.1,4.3,3.2,9.2,9.9,15.5c9-8.2,20.4-20.4,28.3-20.7
					c5.2-0.2,13.3,1.3,9.5,18.9c-3.5,15.8-12.4,49.9-22.6,89.5c-2,8-4,15.7-5.9,23c-0.6,1.8-1.2,3.6-1.7,5.5
					c-17.2,65.3-26.1,96.6-25.9,102.4c0.4,13.6,9.3,19.8,27.2,19.2c27.3-1,55.9-5.3,90.2-30.8c23.9-17.7,31.6-36.2,31.4-44.1
					c-0.1-4.3-3.2-9.2-9.9-15.5C1048,480.3,1037.6,491.6,1029.7,491.9z"/>
				<g>
					<path class="st1" d="M16,554.8c-10.7-2.1-15.8-16.1-15.8-25.4c0-7.2-2.4-17.2,9.7-29.4l40.9-38.8c28-25.1,53.8-50.3,78.9-75.4
						c25.1-24.4,40.9-42.3,47.3-53.1c0,0-30.3-7.2-49-12.2c-19.4-5-33.8-7.2-43.8-7.2c-14.3,0-26.6,7.9-35.9,23.7
						c-6.5-2.1-17.9-11.5-17.9-17.9c0-10.1,12.2-28,36.6-53.1c23.7-25.1,40.9-38.1,51.7-38.1c3.6,0,21.6,5.8,53.8,17.2
						c31.6,11.5,63.7,21.1,70.9,21.1c16.5,0,24.4-7.9,24.4-23.7c0-5-1.5-13.6-4.3-25.1c27.2,2.2,40.9,9.3,40.9,22.3
						c0,33-79.1,121.5-203.3,235.6c32.6,0,115.3,127.8,216,127.8c19.4,0,35.9-10.1,48.1-29.4c10.8,3.6,15.7,9.3,15.7,18.7
						c0,7.9-16.1,28.8-42.7,55.3c-26.6,27.3-45.2,40.2-55.3,40.2c-87.4,0-156.5-155.3-225.5-155.3C39.7,532.6,25.3,539.8,16,554.8z"
						/>
				</g>
				<path class="st1" d="M552.3,233.6c3.4,1.2,8.6,3.6,15.8,10.8c-11.5,28-20.2,55.6-41,115.2c-20.8,59.6-31.6,98.3-31.6,114.8
					c0,12.2,3.6,18.7,11.5,18.7s18-7.9,30.1-23.7c5,2.9,10.8,14.3,10.8,19.4c0,11.5-12.2,25.1-35.9,41.6
					c-24.4,16.5-39.9,24.4-65,24.4c-20.1,0-34.5-13.6-34.5-31.6c0-17.2,6.5-43.1,20.1-77.5l-4.3-2.2
					c-42.3,74-83.9,110.5-126.3,110.5c-38.1,0-57.4-23.7-57.4-70.4c0-35.9,10-72.5,29.5-110.5c19.4-37.3,46.7-68.9,81.1-94.7
					c34.4-25.1,71.1-38,109.1-38c12.2,0,24.4,2.1,37.3,6.4C520.4,236.8,540.2,229.5,552.3,233.6z M449.9,276.3
					c-23,0-57.1,21.6-83.6,63.9c-26.5,42.3-40.2,81.8-40.2,117.7c0,20.8,16.1,30.9,29.8,30.9c16.5,0,38.8-25.1,67.5-76.1
					c28.7-50.2,46.7-91.9,53.1-124.9C468.5,279.9,459.9,276.3,449.9,276.3z"/>
				<path class="st1" d="M688.7,376.1c20.1-40.9,43.8-74.6,71.1-102.6c27.3-28,53.1-41.7,77.5-41.7c43.1,0,64.6,25.1,64.6,75.4
					c0,152.1-103.7,296.6-130,323c-28,28-52.4,43.8-78.9,43.8c-20.1,0-34.4-17.2-34.4-40.2c0-22.2,13.6-38.1,33.7-38.1
					c6.4,0,15.1,2.9,25.8,8.6c10.8,5.7,18,8.6,21.6,8.6c23.7,0,73.3-119.5,73.3-237.6c0-36.6-9.3-54.5-27.3-54.5
					c-20.1,0-44.5,22.2-73.9,66c-29.4,44.5-49.5,95.5-61.7,152.2c-2.1,12.2-17.2,17.9-43.8,17.9c-25.1,0-38-5.7-38-17.2
					c0-2.9,17.2-78.9,51-228.2c33.8-148.6,51-228.9,51-240.4c0-12.9-5-19.4-15.8-19.4c-12.2,0-25.9,2.2-40.2,5.8
					c-3.6-5-5.7-10.1-5.7-15.1c0-9.3,18.7-18.7,56-28C700.9,5,732.5,0,758.3,0c12.9,0,19.3,3.6,19.3,10.8c0,5.8-5.7,32.3-17.9,80.4
					c-12.2,48.1-26.6,102.6-43.1,164.4c-16.5,61.7-26.6,101.2-30.9,117.7L688.7,376.1z"/>
				<path class="st1" d="M1039.7,189.6c-32.2,1.1-48.6-14.1-49.7-46.4c-1-28,21.3-47.4,52.9-48.5c29.4-1,50.1,15.5,51.1,44.2
					C1095,166.8,1072,188.4,1039.7,189.6z"/>
				<path class="st1" d="M1195.8,538.3c-2.1,11.5-24.4,18.7-43.7,18.7c-16.5,0-40.2-6.5-40.2-17.2c0-9.4,7.8-48.1,23-117
					c15-68.9,22.2-107.7,22.2-116.3c0-7.1-3.6-10.7-10-10.7c-10.8,0-24.5,7.9-39.5,23c-5-5.1-7.8-10.8-7.8-16.5
					c0-13.6,15.8-29.4,46.6-45.9c30.8-16.5,60.3-24.4,86.8-24.4c15.8,0,23.7,5,23.7,15.8c0,7.9-10,49.5-29.4,125.6l2.9,1.4
					c17.9-40.9,38.7-74.6,63.2-101.9c23.6-27.3,45.2-40.9,64.6-40.9c28.7,0,46.6,18.7,46.6,44.5c0,28.7-21.5,54.6-44.5,54.6
					c-6.4,0-14.3-3.6-25.1-10.1c-10.7-6.4-18.6-9.3-22.2-9.3c-12.2,0-28,12.2-46.7,37.3c-18.7,25.1-33.7,52.4-44.5,81.1
					C1213,452.2,1204.4,488.1,1195.8,538.3z"/>
			</g>
		</g>
	</g>
</g>
</svg>
